<svg width="129" height="129" viewBox="0 0 129 129" fill="none" xmlns="http://www.w3.org/2000/svg">
<path d="M127.76 1H0.629883V128.13H127.76V1Z" fill="white"/>
<g opacity="0.1">
<path opacity="0.1" d="M127.75 125.12V128.12H124.75" stroke="#20263C" stroke-miterlimit="10"/>
<path opacity="0.1" d="M118.99 128.12H6.50977" stroke="#20263C" stroke-miterlimit="10" stroke-dasharray="5.77 5.77"/>
<path opacity="0.1" d="M3.62988 128.12H0.629883V125.12" stroke="#20263C" stroke-miterlimit="10"/>
<path opacity="0.1" d="M0.629883 119.35V6.88" stroke="#20263C" stroke-miterlimit="10" stroke-dasharray="5.77 5.77"/>
<path opacity="0.1" d="M0.629883 4V1H3.62988" stroke="#20263C" stroke-miterlimit="10"/>
<path opacity="0.1" d="M9.3999 1H121.87" stroke="#20263C" stroke-miterlimit="10" stroke-dasharray="5.77 5.77"/>
<path opacity="0.1" d="M124.75 1H127.75V4" stroke="#20263C" stroke-miterlimit="10"/>
<path opacity="0.1" d="M127.75 9.76001V122.24" stroke="#20263C" stroke-miterlimit="10" stroke-dasharray="5.77 5.77"/>
</g>
<path d="M48.6299 57.2624L36.1382 50L23.6299 57.2624V71.7541L36.1382 79L48.6299 71.7541V57.2624ZM45.9401 70.1955L36.1382 75.8662L26.3362 70.1955V58.821L36.1382 53.1338L45.9401 58.821V70.1955Z" fill="#414042"/>
<path d="M75.6299 57.2459L63.622 50L51.6299 57.2459V71.7376L63.622 79L75.6299 71.7376V57.2459Z" fill="#414042"/>
<path d="M91.1217 50L78.6299 57.2624V71.7541L91.1217 79L103.63 71.7541V57.2624L91.1217 50ZM100.924 70.1955L91.1217 75.8662L81.3197 70.1955V58.821L91.1217 53.1338L100.924 58.821V70.1955Z" fill="#414042"/>
<path d="M37.6299 81.2624V95.7542L50.1546 103L62.6299 95.7542V81.2624L50.1546 74L37.6299 81.2624ZM59.8942 94.2453L50.1546 99.8662L40.2667 94.2453V82.821L50.1546 77.1338L59.9272 82.821L59.8942 94.2453Z" fill="#414042"/>
<path d="M64.6299 81.2624V95.7542L77.1216 103L89.6299 95.7542V81.2624L77.1216 74L64.6299 81.2624ZM86.9236 94.2453L77.1216 99.916L67.3362 94.2453V82.821L77.1216 77.1338L86.9236 82.821V94.2453Z" fill="#414042"/>
<path d="M62.6299 47.7541V33.2127L50.1712 26L37.6299 33.2127V47.7044L50.1712 55L62.6299 47.7541ZM40.2702 34.8708L50.1712 29.1338L59.9237 34.8708V46.2453L50.1712 51.8662L40.2702 46.1955V34.8708Z" fill="#414042"/>
<path d="M89.6299 47.8039V33.2624L77.1216 26L64.6299 33.2624V47.7541L77.1216 55L89.6299 47.8039ZM67.3362 34.9205L77.1216 29.2333L86.9236 34.9205V46.295L77.1216 51.9657L67.3362 46.295V34.9205Z" fill="#414042"/>
</svg>
